<?xml version="1.0" encoding="UTF-8" standalone="no"?>
<!DOCTYPE svg PUBLIC "-//W3C//DTD SVG 1.1//EN"
 "http://www.w3.org/Graphics/SVG/1.1/DTD/svg11.dtd">
<!-- Generated by graphviz version 2.26.3 (20100126.1600)
 -->
<!-- Title: G Pages: 1 -->
<svg width="522pt" height="196pt"
 viewBox="0.00 0.00 522.00 196.00" xmlns="http://www.w3.org/2000/svg" xmlns:xlink="http://www.w3.org/1999/xlink">
<g id="graph1" class="graph" transform="scale(1 1) rotate(0) translate(4 192)">
<title>G</title>
<polygon fill="white" stroke="white" points="-4,5 -4,-192 519,-192 519,5 -4,5"/>
<g id="graph2" class="cluster"><title>cluster_Global</title>
<polyline fill="none" stroke="gray" points="266,-30 494,-30 "/>
<path fill="none" stroke="gray" d="M494,-30C500,-30 506,-36 506,-42"/>
<polyline fill="none" stroke="gray" points="506,-42 506,-168 "/>
<path fill="none" stroke="gray" d="M506,-168C506,-174 500,-180 494,-180"/>
<polyline fill="none" stroke="gray" points="494,-180 266,-180 "/>
<path fill="none" stroke="gray" d="M266,-180C260,-180 254,-174 254,-168"/>
<polyline fill="none" stroke="gray" points="254,-168 254,-42 "/>
<path fill="none" stroke="gray" d="M254,-42C254,-36 260,-30 266,-30"/>
<text text-anchor="middle" x="380" y="-166.1" font-family="Times Roman,serif" font-size="11.00" fill="gray">\</text>
</g>
<g id="graph3" class="cluster"><title>cluster_\Ulrichsg</title>
<polyline fill="none" stroke="gray" points="274,-38 486,-38 "/>
<path fill="none" stroke="gray" d="M486,-38C492,-38 498,-44 498,-50"/>
<polyline fill="none" stroke="gray" points="498,-50 498,-138 "/>
<path fill="none" stroke="gray" d="M498,-138C498,-144 492,-150 486,-150"/>
<polyline fill="none" stroke="gray" points="486,-150 274,-150 "/>
<path fill="none" stroke="gray" d="M274,-150C268,-150 262,-144 262,-138"/>
<polyline fill="none" stroke="gray" points="262,-138 262,-50 "/>
<path fill="none" stroke="gray" d="M262,-50C262,-44 268,-38 274,-38"/>
<text text-anchor="middle" x="380" y="-136.1" font-family="Times Roman,serif" font-size="11.00" fill="gray">Ulrichsg</text>
</g>
<g id="graph4" class="cluster"><title>cluster_\Ulrichsg\Collections</title>
<polyline fill="none" stroke="gray" points="282,-46 478,-46 "/>
<path fill="none" stroke="gray" d="M478,-46C484,-46 490,-52 490,-58"/>
<polyline fill="none" stroke="gray" points="490,-58 490,-108 "/>
<path fill="none" stroke="gray" d="M490,-108C490,-114 484,-120 478,-120"/>
<polyline fill="none" stroke="gray" points="478,-120 282,-120 "/>
<path fill="none" stroke="gray" d="M282,-120C276,-120 270,-114 270,-108"/>
<polyline fill="none" stroke="gray" points="270,-108 270,-58 "/>
<path fill="none" stroke="gray" d="M270,-58C270,-52 276,-46 282,-46"/>
<text text-anchor="middle" x="380" y="-106.1" font-family="Times Roman,serif" font-size="11.00" fill="gray">Collections</text>
</g>
<!-- \\Ulrichsg\\Collections\\Map -->
<g id="node4" class="node"><title>\\Ulrichsg\\Collections\\Map</title>
<polygon fill="none" stroke="black" points="332,-90 278,-90 278,-54 332,-54 332,-90"/>
<text text-anchor="middle" x="305" y="-69.1" font-family="Courier,monospace" font-size="11.00">Map</text>
</g>
<!-- \\Countable -->
<g id="node7" class="node"><title>\\Countable</title>
<ellipse fill="none" stroke="black" cx="103" cy="-126" rx="65.0538" ry="18.3848"/>
<text text-anchor="middle" x="103" y="-122.4" font-family="Times Roman,serif" font-size="14.00" fill="gray">\Countable</text>
</g>
<!-- \\Ulrichsg\\Collections\\Map&#45;&gt;\\Countable -->
<g id="edge5" class="edge"><title>\\Ulrichsg\\Collections\\Map&#45;&gt;\\Countable</title>
<path fill="none" stroke="black" stroke-dasharray="1,5" d="M277.706,-79.5217C257.835,-84.9788 230.267,-92.5105 206,-99 191.272,-102.939 175.344,-107.142 160.518,-111.03"/>
<polygon fill="none" stroke="black" points="159.245,-107.745 150.458,-113.664 161.019,-114.517 159.245,-107.745"/>
</g>
<!-- \\ArrayAccess -->
<g id="node9" class="node"><title>\\ArrayAccess</title>
<ellipse fill="none" stroke="black" cx="103" cy="-72" rx="73.0388" ry="18.3848"/>
<text text-anchor="middle" x="103" y="-68.4" font-family="Times Roman,serif" font-size="14.00" fill="gray">\ArrayAccess</text>
</g>
<!-- \\Ulrichsg\\Collections\\Map&#45;&gt;\\ArrayAccess -->
<g id="edge7" class="edge"><title>\\Ulrichsg\\Collections\\Map&#45;&gt;\\ArrayAccess</title>
<path fill="none" stroke="black" stroke-dasharray="1,5" d="M277.757,-72C254.335,-72 219.276,-72 186.693,-72"/>
<polygon fill="none" stroke="black" points="186.677,-68.5001 176.677,-72 186.677,-75.5001 186.677,-68.5001"/>
</g>
<!-- \\IteratorAggregate -->
<g id="node11" class="node"><title>\\IteratorAggregate</title>
<ellipse fill="none" stroke="black" cx="103" cy="-18" rx="102.03" ry="18.3848"/>
<text text-anchor="middle" x="103" y="-14.4" font-family="Times Roman,serif" font-size="14.00" fill="gray">\IteratorAggregate</text>
</g>
<!-- \\Ulrichsg\\Collections\\Map&#45;&gt;\\IteratorAggregate -->
<g id="edge9" class="edge"><title>\\Ulrichsg\\Collections\\Map&#45;&gt;\\IteratorAggregate</title>
<path fill="none" stroke="black" stroke-dasharray="1,5" d="M277.706,-64.4783C257.835,-59.0212 230.267,-51.4895 206,-45 194.49,-41.9218 182.246,-38.6822 170.368,-35.5574"/>
<polygon fill="none" stroke="black" points="171.062,-32.1211 160.501,-32.9658 169.284,-38.8914 171.062,-32.1211"/>
</g>
<!-- \\Ulrichsg\\Collections\\NumberMap -->
<g id="node5" class="node"><title>\\Ulrichsg\\Collections\\NumberMap</title>
<polygon fill="none" stroke="black" points="481,-90 405,-90 405,-54 481,-54 481,-90"/>
<text text-anchor="middle" x="443" y="-69.1" font-family="Courier,monospace" font-size="11.00">NumberMap</text>
</g>
<!-- \\Ulrichsg\\Collections\\NumberMap&#45;&gt;\\Ulrichsg\\Collections\\Map -->
<g id="edge11" class="edge"><title>\\Ulrichsg\\Collections\\NumberMap&#45;&gt;\\Ulrichsg\\Collections\\Map</title>
<path fill="none" stroke="black" d="M404.192,-72C384.82,-72 361.493,-72 342.328,-72"/>
<polygon fill="none" stroke="black" points="342.161,-68.5001 332.161,-72 342.161,-75.5001 342.161,-68.5001"/>
</g>
</g>
</svg>
